# xmcd CD database file generated by LOLA_Freedb v0.9beta0
# 
# Track frame offsets:
#      150
#      24095
#      53734
#      68055
#      92547
#      110811
#      159773
# 
# Disc length: 2543 seconds
# 
# Revision: 1 
# Processed by: cddbd v1.5.1PL2 Copyright (c) Steve Scherf et al.
# Submitted via: LOLA_Freedb v0.9beta0
# 
DISCID=4809ed07
DTITLE=SAVOY BROWN - STREET COENER TALKING
DYEAR=1971
DGENRE=
TTITLE0=Kim Simonds, Paul Raymond - TELL MAMA
TTITLE1=Norman Whitfield, Barrett strong - I CAN'T GET NEXT TO YOU
TTITLE2=Kim Simonds, Paul Raymond - LET IT ROCK
TTITLE3=Kim Simonds - TIME DOES TELL
TTITLE4=Kim Simonds - STREET CORNER TALKING
TTITLE5=Kim Simonds, Paul Raymond - ALL I CAN DO
TTITLE6=Willie Dixion - WANG DANG DOODLE
EXTD=
EXTT0=
EXTT1=
EXTT2=
EXTT3=
EXTT4=
EXTT5=
EXTT6=
PLAYORDER=
